<svg aria-hidden="true" style="position: absolute; width: 0; height: 0; overflow: hidden;" version="1.1"
	xmlns="http://www.w3.org/2000/svg"
	xmlns:xlink="http://www.w3.org/1999/xlink">
	<defs>
		<symbol id="icon-health" viewBox="0 0 31 32">
			<path fill="#fff" style="fill: var(--color1, #fff)" d="M27.677 5.218l-9.038 5.219v-10.437h-6.4v10.437l-9.038-5.219-3.2 5.544 9.037 5.218-9.037 5.218 3.2 5.544 9.038-5.218v10.437h6.4v-10.437l9.038 5.218 3.2-5.544-9.037-5.218 9.037-5.218-3.2-5.544z"></path>
		</symbol>
		<symbol id="icon-basketball" viewBox="0 0 31 32">
			<path fill="#fff" style="fill: var(--color1, #fff)" d="M4.565 26.663c2.958 2.958 6.876 4.586 11.038 4.586s8.081-1.628 11.038-4.586c6.086-6.086 6.086-15.989 0-22.077-2.956-2.957-6.878-4.586-11.038-4.586s-8.081 1.63-11.038 4.588c-6.086 6.085-6.086 15.989 0 22.075zM16.085 3.147c2.607 0.094 5.117 1.011 7.171 2.619l-7.653 7.652-2.279-2.279c1.812-2.309 2.797-5.164 2.761-7.992zM11.091 8.907l-3.141-3.141c1.474-1.156 3.192-1.962 5.023-2.357-0.023 1.929-0.695 3.867-1.883 5.498zM8.868 11.099c-1.59 1.086-3.474 1.662-5.399 1.65 0.406-1.737 1.182-3.365 2.276-4.773l3.123 3.124zM3.132 15.853c0.12 0.003 0.24 0.022 0.361 0.022 2.747 0.009 5.421-0.883 7.613-2.538l2.29 2.288-7.65 7.65c-1.651-2.126-2.568-4.731-2.613-7.422zM22.322 20.138c1.627-1.183 3.559-1.854 5.476-1.883-0.39 1.829-1.189 3.545-2.337 5.022l-3.139-3.139zM23.254 25.485c-1.408 1.1-3.037 1.883-4.775 2.295-0.018-1.933 0.558-3.825 1.65-5.42l3.125 3.125zM15.381 28.116c-2.698-0.043-5.308-0.967-7.432-2.632l7.653-7.652 2.284 2.284c-1.722 2.254-2.59 5.098-2.505 8zM28.062 15.145c-2.821-0.028-5.671 0.952-7.973 2.76l-2.279-2.279 7.65-7.65c1.597 2.058 2.507 4.566 2.602 7.17z"></path>
		</symbol>
		<symbol id="icon-restaurant" viewBox="0 0 28 32">
			<path fill="#fff" style="fill: var(--color1, #fff)" d="M14.222 12.444h-3.556v-12.444h-3.556v12.444h-3.556v-12.444h-3.556v14.222c0 2.94 2.393 5.333 5.333 5.333h1.778v12.444h3.556v-12.444h1.778c2.94 0 5.333-2.393 5.333-5.333v-14.222h-3.556v12.444zM26.667 0h-1.778c-2.060 0-3.556 2.244-3.556 5.333v14.222h3.556v12.444h3.556v-30.222c0-0.472-0.187-0.924-0.521-1.257s-0.786-0.521-1.257-0.521z"></path>
		</symbol>
		<symbol id="icon-cheese" viewBox="0 0 33 32">
			<path fill="#fff" style="fill: var(--color1, #fff)" d="M21.597 0.018c-0.375-0.056-0.758 0.019-1.083 0.213l-19.692 11.487c-0.078 0.045-0.15 0.101-0.213 0.164l-0.164 0.131c-0.112 0.129-0.205 0.273-0.279 0.427-0.117 0.216-0.173 0.46-0.164 0.706v16.41c0 0.435 0.173 0.853 0.481 1.16s0.725 0.481 1.16 0.481h29.538c0.435 0 0.853-0.173 1.16-0.481s0.481-0.725 0.481-1.16v-16.41c0.006-3.168-1.122-6.234-3.181-8.642s-4.912-3.999-8.043-4.486zM21.597 3.382c1.973 0.404 3.777 1.397 5.175 2.847s2.322 3.29 2.653 5.276h-21.711l13.883-8.123zM29.539 27.916h-26.256v-13.128h26.256v13.128z"></path>
			<path fill="#fff" style="fill: var(--color1, #fff)" d="M7.386 26.274c1.359 0 2.462-1.102 2.462-2.462s-1.102-2.462-2.462-2.462-2.462 1.102-2.462 2.462c0 1.359 1.102 2.462 2.462 2.462z"></path>
			<path fill="#fff" style="fill: var(--color1, #fff)" d="M15.591 21.351c1.36 0 2.462-1.102 2.462-2.462s-1.102-2.462-2.462-2.462c-1.359 0-2.462 1.102-2.462 2.462s1.102 2.462 2.462 2.462z"></path>
			<path fill="#fff" style="fill: var(--color1, #fff)" d="M24.616 26.274c1.813 0 3.282-1.469 3.282-3.282s-1.469-3.282-3.282-3.282c-1.813 0-3.282 1.469-3.282 3.282s1.469 3.282 3.282 3.282z"></path>
		</symbol>
	</defs>
</svg>
