<svg xmlns="http://www.w3.org/2000/svg" style="display:none">
  <symbol id="icon-Company-Logo" viewBox="0 0 75 32">
    <path d="M66.024 17.087c-0.757-0.025-1.512-0.051-2.27-0.025-3.519 0.148-7.504 0.772-10.007 3.512-1.194 1.308-1.842 2.928-1.75 4.707 0.060 1.006 0.326 1.989 0.782 2.888-0.004 0.008-0.008 0.015-0.013 0.023-0.002 0.004-0.005 0.008-0.007 0.012-0.134 0.229-0.418 0.548-0.704 0.869-0.362 0.407-0.728 0.817-0.8 1.057-0.018 0.061-0.005 0.135 0.013 0.194 0.059 0.2 0.265 0.356 0.426 0.479l0.012 0.009c0.354-0.348 0.676-0.726 0.997-1.104l0.026-0.030 0.651-0.795c1.728 0.98 3.424 1.289 5.363 0.751 2.373-0.658 4.208-2.347 5.39-4.468 1.317-2.361 1.923-5.394 2.011-8.076l-0.12-0.004zM62.587 19.454c0.009 0.002 0.018 0.005 0.027 0.007 0.084 0.021 0.161 0.040 0.232 0.097 0.076 0.061 0.136 0.157 0.131 0.257-0.006 0.118-0.049 0.178-0.131 0.261-0.254 0.257-0.561 0.483-0.862 0.704-0.133 0.098-0.265 0.195-0.391 0.294-0.797 0.617-1.583 1.248-2.357 1.894 0.489-0.118 2.127-0.399 2.554-0.253 0.132 0.046 0.176 0.11 0.229 0.233-0.012 0.182-0.067 0.293-0.241 0.369-0.079 0.035-0.667 0.092-1.326 0.156-0.751 0.073-1.594 0.155-1.884 0.223-0.183 0.043-0.328 0.105-0.482 0.213-0.233 0.163-0.444 0.367-0.652 0.569-0.077 0.075-0.154 0.149-0.232 0.221-0.683 0.634-1.353 1.273-2.008 1.936 0.465 0.103 1.149 0.070 1.812 0.038 0.746-0.036 1.464-0.070 1.811 0.092 0.057 0.073 0.073 0.15 0.066 0.243-0.007 0.075-0.049 0.121-0.102 0.17-0.286 0.261-3.11 0.177-3.548 0.128-0.018-0.003-0.036-0.006-0.055-0.009-0.098-0.017-0.206-0.035-0.298-0.016-0.709 0.146-1.681 1.244-2.103 1.795l0.026-0.060c0.197-0.459 0.395-0.921 0.669-1.341 0.464-0.712 1.78-2.029 2.425-2.652 0.103-0.099 0.222-0.2 0.345-0.303 0.272-0.229 0.562-0.473 0.722-0.744 0.162-0.273 0.258-0.844 0.359-1.442 0.127-0.753 0.262-1.55 0.543-1.857 0.082-0.089 0.107-0.095 0.219-0.106 0.111 0.049 0.182 0.096 0.245 0.204 0.046 0.079 0.052 0.157 0.040 0.244-0.029 0.212-0.103 0.435-0.176 0.653-0.039 0.118-0.078 0.235-0.109 0.348-0.106 0.384-0.186 0.773-0.266 1.163-0.009 0.044-0.018 0.088-0.027 0.132 0.372-0.359 0.791-0.678 1.206-0.994 0.134-0.102 0.269-0.205 0.401-0.308 0.2-0.156 0.401-0.312 0.601-0.468 0.875-0.679 1.754-1.362 2.586-2.088z"></path>
    <path d="M10.95 0.269c-0.014 0.001-0.027 0.004-0.041 0.007-1.502 0.18-2.862 0.867-3.809 2.064-1.159 1.466-1.477 3.339-1.256 5.163 0.191 1.58 0.914 3.073 2.19 4.055 1.274 0.981 2.757 1.259 4.331 1.136 1.531-0.21 2.912-0.903 3.862-2.145 1.103-1.441 1.407-3.344 1.166-5.111-0.219-1.605-1.017-3.1-2.323-4.078-1.183-0.886-2.655-1.246-4.12-1.091zM11.441 2.315c0.822-0.010 1.566 0.144 2.213 0.679 0.791 0.655 1.149 1.688 1.24 2.683 0.117 1.281-0.023 2.795-0.884 3.819-0.593 0.705-1.353 0.987-2.249 1.066-0.017 0.002-0.033 0.004-0.050 0.005-0.76 0.039-1.551-0.186-2.139-0.675-0.807-0.672-1.149-1.694-1.235-2.712-0.107-1.275-0.008-2.829 0.864-3.849 0.59-0.691 1.357-0.952 2.239-1.016z"></path>
    <path d="M29.228 3.484c-0.005 0.001-0.010 0.001-0.016 0.002-1.027 0.099-1.903 0.506-2.571 1.307-0.836 1.001-1.12 2.406-0.996 3.68 0.105 1.073 0.545 2.133 1.4 2.822 0.862 0.695 1.966 0.859 3.042 0.729 0.848-0.103 1.407-0.481 1.993-1.078 0.001 0.058 0.002 0.117 0.003 0.177 0.016 0.81 0.034 1.788-0.566 2.39-0.404 0.404-0.982 0.49-1.529 0.479-0.591-0.012-1.186-0.149-1.607-0.597-0.119-0.127-0.197-0.285-0.274-0.44-0.014-0.027-0.027-0.055-0.041-0.082-0.214-0.001-0.437-0.008-0.663-0.015-0.547-0.018-1.113-0.037-1.623 0.039-0.044 0.117-0.011 0.244 0.020 0.365 0.006 0.024 0.012 0.048 0.018 0.071 0.305 0.913 0.955 1.616 1.812 2.051 1.216 0.617 2.947 0.671 4.23 0.241 0.944-0.316 1.758-0.956 2.203-1.856 0.171-0.353 0.281-0.733 0.325-1.123 0.088-0.714 0.081-1.465 0.073-2.202-0.003-0.268-0.005-0.534-0.003-0.797l0.014-5.965c-0.234 0-0.469 0.001-0.704 0.002-0.549 0.002-1.099 0.005-1.648-0.002l-0.001 0.781c-0.862-0.712-1.728-1.070-2.865-0.983-0.010 0.001-0.020 0.002-0.030 0.003zM29.851 5.389c0.457-0.039 0.936 0.042 1.33 0.284 0.45 0.277 0.73 0.726 0.853 1.234 0.177 0.729 0.164 1.729-0.245 2.378-0.325 0.516-0.794 0.71-1.365 0.83-0.505 0.056-1.026-0.009-1.454-0.303-0.505-0.346-0.778-0.914-0.879-1.504-0.123-0.714-0.039-1.55 0.398-2.147 0.339-0.464 0.809-0.689 1.363-0.772z"></path>
    <path d="M45.162 20.62c-0.749-0.619-1.686-0.85-2.643-0.827-1.12 0.087-1.796 0.422-2.535 1.26l-0.003-1.065-2.384 0.001 0.001 12.089 2.425-0.002-0.003-1.782 0.003-2.256c0.878 0.731 1.818 1.104 2.974 1.003 1.018-0.088 1.907-0.551 2.564-1.334 0.919-1.095 1.19-2.617 1.056-4.008-0.111-1.151-0.541-2.323-1.454-3.078zM41.87 21.785c0.482-0.051 1 0.061 1.396 0.346 0.544 0.39 0.802 1.030 0.891 1.673 0.115 0.837 0.032 1.818-0.51 2.502-0.371 0.468-0.82 0.664-1.395 0.742-0.502 0.049-1.051-0.066-1.462-0.365-0.469-0.34-0.716-0.858-0.806-1.419-0.136-0.848-0.112-2.001 0.425-2.713 0.372-0.492 0.869-0.695 1.461-0.767z"></path>
    <path d="M36.23 24.051c-0.198-2.57-2.44-4.494-5.010-4.3-2.576 0.194-4.506 2.442-4.307 5.018s2.45 4.502 5.025 4.299c2.57-0.202 4.49-2.447 4.292-5.017zM31.366 21.696c0.446-0.052 0.942 0.060 1.326 0.291 0.524 0.315 0.845 0.849 0.983 1.434 0.201 0.848 0.164 1.954-0.317 2.707-0.349 0.545-0.826 0.804-1.442 0.933-0.561 0.023-1.059-0.022-1.536-0.353-0.533-0.37-0.82-0.974-0.926-1.597-0.143-0.841-0.077-1.868 0.441-2.576 0.37-0.505 0.867-0.745 1.47-0.838z"></path>
    <path d="M9.909 16.756c0.181-0.025 0.376-0.022 0.558-0.028 1.327-0.043 2.751 0.186 3.748 1.137 0.729 0.695 0.944 1.528 0.964 2.506l-2.403 0.009c-0.028-0.481-0.1-0.865-0.475-1.208-0.501-0.458-1.253-0.567-1.909-0.534-0.515 0.026-1.053 0.167-1.401 0.574-0.254 0.296-0.337 0.68-0.294 1.061 0.041 0.368 0.227 0.66 0.532 0.868 0.476 0.324 1.086 0.446 1.638 0.57 1.216 0.273 2.735 0.489 3.711 1.32 0.598 0.51 0.877 1.186 0.934 1.959 0.069 0.945-0.183 1.831-0.815 2.548-0.878 0.996-2.187 1.4-3.474 1.484-1.421 0.098-2.991-0.184-4.103-1.132-0.815-0.695-1.161-1.585-1.243-2.633l2.448-0.004c0.112 0.52 0.3 0.953 0.729 1.288 0.59 0.461 1.418 0.553 2.142 0.472 0.565-0.063 1.159-0.284 1.512-0.751 0.22-0.291 0.298-0.651 0.248-1.010-0.051-0.37-0.26-0.671-0.57-0.875-0.349-0.23-0.781-0.343-1.18-0.449-1.317-0.35-2.896-0.465-3.993-1.333-0.593-0.469-0.94-1.109-1.027-1.861-0.107-0.925 0.072-1.792 0.66-2.53 0.736-0.923 1.928-1.318 3.061-1.449z"></path>
    <path d="M43.097 4.11c-0.862-0.562-2-0.661-3.001-0.623-1.084 0.072-2.349 0.321-3.096 1.189-0.4 0.464-0.55 1.023-0.575 1.622l2.239 0.009c0.244-0.489 0.541-0.832 1.082-1.003 0.49-0.155 1.13-0.155 1.586 0.095 0.264 0.145 0.474 0.393 0.559 0.684 0.047 0.159 0.061 0.33 0.074 0.497 0.002 0.027 0.004 0.053 0.007 0.080-0.153 0.171-0.289 0.289-0.502 0.378-0.505 0.212-1.109 0.251-1.684 0.289-0.2 0.013-0.397 0.026-0.584 0.046-1.684 0.178-3.253 0.8-3.128 2.792 0.025 0.401 0.13 0.748 0.301 1.109 0.439 0.701 1.030 1.137 1.841 1.318 0.982 0.219 2.17 0.116 3.032-0.433 0.298-0.19 0.547-0.425 0.787-0.683 0.049 0.346 0.118 0.678 0.203 1.017l2.254-0.004c-0.249-1.19-0.23-2.424-0.211-3.646 0.005-0.33 0.010-0.658 0.010-0.985-0-0.113 0.001-0.228 0.002-0.344 0.006-0.725 0.012-1.508-0.22-2.179-0.177-0.514-0.522-0.928-0.974-1.223zM41.896 8.333l0.068 0.037c0.097 0.507-0.029 1.177-0.29 1.612-0.286 0.478-0.749 0.838-1.293 0.968-0.498 0.119-0.939 0.054-1.371-0.219-0.179-0.162-0.323-0.331-0.399-0.565-0.087-0.27-0.072-0.596 0.064-0.848 0.303-0.559 1.387-0.705 2.286-0.826 0.363-0.049 0.696-0.094 0.935-0.16z"></path>
    <path d="M17.012 16.657h2.412l0.002 4.473c0.109-0.142 0.219-0.285 0.343-0.414 0.612-0.637 1.449-0.921 2.319-0.937 0.902-0.016 1.846 0.217 2.503 0.867 0.416 0.411 0.688 0.953 0.815 1.521 0.18 0.809 0.089 1.73 0.089 2.558l0.001 4.073-2.41 0.001c-0.020-1.091-0.002-2.185-0.001-3.277-0.002-0.881 0.218-2.5-0.4-3.196-0.282-0.318-0.68-0.45-1.094-0.472-0.562-0.030-1.189 0.042-1.613 0.447-0.262 0.251-0.419 0.592-0.492 0.944-0.148 0.71-0.066 1.53-0.063 2.253l0.002 3.3-2.412 0.001c-0.026-1.374-0.002-2.753-0.002-4.127l0.001-8.014z"></path>
    <path d="M51.309 3.485c0.134-0.010 0.268-0.016 0.403-0.016 0.867-0.005 1.665 0.249 2.288 0.87 0.402 0.406 0.683 0.917 0.811 1.475 0.195 0.836 0.092 1.808 0.092 2.667l0.005 4.010h-2.393l0.003-3.639c0-0.658 0.050-1.371-0.038-2.023-0.038-0.278-0.103-0.552-0.269-0.783-0.237-0.33-0.637-0.528-1.036-0.572-0.653-0.073-1.223 0.029-1.752 0.428-0.263 0.296-0.382 0.548-0.458 0.937-0.125 0.636-0.054 1.374-0.053 2.021l0.006 3.631-2.466 0.001 0.004-8.808 2.375 0.001c0.001 0.385 0.005 0.77 0.011 1.155 0.059-0.077 0.118-0.153 0.178-0.228 0.594-0.739 1.372-1.026 2.29-1.127z"></path>
    <path d="M65.334 3.486c0.993-0.061 1.986 0.105 2.847 0.625 1.002 0.606 1.533 1.491 1.81 2.606-0.797-0.010-1.595-0.010-2.392-0.002-0.185-0.437-0.448-0.815-0.847-1.083-0.414-0.278-0.931-0.395-1.421-0.286-0.565 0.125-1.035 0.466-1.343 0.955-0.488 0.776-0.536 1.919-0.316 2.789 0.155 0.613 0.498 1.193 1.061 1.511 0.461 0.261 1.061 0.32 1.567 0.165 0.661-0.203 1.028-0.738 1.323-1.323l2.321-0.002c-0.166 0.655-0.391 1.249-0.821 1.779-0.721 0.887-1.782 1.359-2.905 1.475-1.239 0.128-2.485-0.158-3.459-0.958-0.957-0.785-1.491-1.931-1.597-3.154-0.111-1.28 0.156-2.576 0.999-3.576 0.816-0.967 1.936-1.411 3.172-1.522z"></path>
    <path d="M24.048 3.529c0.223-0.014 0.446 0.013 0.668 0.032l-0.001 2.251-0.358-0.003c-0.793-0.002-1.693 0.050-2.28 0.661-0.269 0.28-0.421 0.627-0.503 1.002-0.145 0.661-0.072 1.42-0.069 2.096l0.005 2.921c-0.71 0.002-1.689 0.087-2.375-0.019-0.070-0.099-0.050-0.198-0.054-0.317l0-8.468 2.381-0.001c0.011 0.409 0.026 0.817 0.044 1.225 0.093-0.152 0.193-0.295 0.308-0.431 0.556-0.66 1.412-0.877 2.234-0.949z"></path>
    <path d="M57.13 3.684l2.454 0.002-0.002 5.833c0 0.984 0.055 1.992-0.011 2.972l-2.449 0.001c0.039-1.143 0.017-2.292 0.017-3.436l-0.010-5.372z"></path>
    <path d="M57.068 0.26l2.72-0.002c-0.006 0.679-0.005 1.358 0.002 2.037l-2.722 0.001v-2.036z"></path>
  </symbol>
  <symbol id="icon-menu" viewBox="0 0 32 32">
    <path d="M5.333 8h21.333v2.667h-21.333v-2.667zM5.333 14.667h21.333v2.667h-21.333v-2.667zM5.333 21.333h21.333v2.667h-21.333v-2.667z"></path>
  </symbol>
  <symbol id="icon-arrow-down" viewBox="0 0 17 10">
    <path d="M15.5127 0.573242C15.6103 0.475644 15.7686 0.475618 15.8662 0.573242L16.2197 0.926758C16.3174 1.02438 16.3173 1.18263 16.2197 1.28027L8.57324 8.92676C8.4756 9.0244 8.31736 9.0244 8.21973 8.92676L0.573242 1.28027C0.475626 1.18263 0.475613 1.02439 0.573242 0.926758L0.926758 0.573242C1.02437 0.475624 1.18263 0.475625 1.28027 0.573242L8.39648 7.68945L15.5127 0.573242Z" fill="white" stroke="white"/>
  </symbol>
  <symbol id="icon-close-navbar" viewBox="0 0 32 32">
    <path fill="#fff" style="fill: var(--color1, #fff)" d="M26.397 0l-11.315 11.312-11.312-11.312-3.771 3.771 11.312 11.312-11.312 11.312 3.771 3.771 11.312-11.312 11.315 11.312 3.771-3.771-11.312-11.312 11.312-11.312-3.771-3.771z"></path>
  </symbol>
  <symbol id="icon-logo-organick" viewBox="0 0 65 32">
    <path fill="#fff" style="fill: var(--color1, #fff)" d="M60.246 16.854c-0.757-0.025-1.512-0.051-2.27-0.025-3.519 0.148-7.504 0.772-10.007 3.512-1.194 1.308-1.842 2.928-1.75 4.707 0.060 1.006 0.326 1.989 0.782 2.888-0.004 0.008-0.008 0.015-0.013 0.023-0.002 0.004-0.005 0.008-0.007 0.012-0.134 0.229-0.418 0.548-0.704 0.869-0.362 0.407-0.728 0.817-0.8 1.057-0.018 0.061-0.005 0.135 0.013 0.194 0.059 0.2 0.265 0.356 0.426 0.479l0.012 0.009c0.354-0.348 0.676-0.726 0.997-1.104l0.026-0.030 0.651-0.795c1.728 0.98 3.424 1.289 5.363 0.751 2.373-0.658 4.208-2.347 5.39-4.468 1.317-2.361 1.923-5.394 2.011-8.076l-0.12-0.004zM56.808 19.221c0.009 0.002 0.018 0.005 0.027 0.007 0.084 0.021 0.161 0.041 0.232 0.097 0.076 0.061 0.136 0.157 0.131 0.257-0.006 0.119-0.049 0.178-0.131 0.261-0.254 0.257-0.561 0.483-0.862 0.704-0.133 0.098-0.265 0.195-0.391 0.294-0.797 0.617-1.583 1.248-2.357 1.894 0.489-0.118 2.127-0.399 2.554-0.253 0.132 0.046 0.176 0.11 0.229 0.233-0.012 0.182-0.067 0.293-0.241 0.369-0.079 0.035-0.667 0.092-1.326 0.156-0.751 0.073-1.594 0.155-1.884 0.223-0.183 0.043-0.328 0.105-0.482 0.213-0.233 0.163-0.444 0.367-0.652 0.569-0.077 0.075-0.154 0.149-0.232 0.221-0.683 0.634-1.353 1.273-2.008 1.936 0.465 0.103 1.149 0.070 1.812 0.038 0.746-0.036 1.464-0.070 1.811 0.092 0.057 0.073 0.073 0.15 0.065 0.243-0.007 0.075-0.049 0.121-0.102 0.17-0.286 0.261-3.11 0.177-3.548 0.127-0.018-0.003-0.036-0.006-0.055-0.009-0.098-0.017-0.206-0.035-0.298-0.016-0.709 0.146-1.681 1.244-2.103 1.795l0.026-0.060c0.197-0.459 0.395-0.921 0.669-1.341 0.464-0.712 1.78-2.029 2.425-2.652 0.103-0.099 0.222-0.2 0.345-0.303 0.272-0.229 0.562-0.473 0.722-0.744 0.162-0.273 0.258-0.844 0.359-1.442 0.127-0.753 0.262-1.55 0.543-1.858 0.082-0.089 0.107-0.095 0.219-0.106 0.111 0.049 0.182 0.096 0.245 0.204 0.046 0.079 0.052 0.157 0.040 0.244-0.029 0.212-0.103 0.435-0.176 0.653-0.039 0.118-0.078 0.235-0.109 0.348-0.106 0.384-0.186 0.773-0.266 1.163-0.009 0.044-0.018 0.088-0.027 0.132 0.372-0.359 0.791-0.677 1.206-0.994 0.134-0.102 0.269-0.205 0.401-0.308 0.2-0.156 0.401-0.312 0.601-0.468 0.875-0.679 1.754-1.362 2.586-2.088z"></path>
    <path fill="#fff" style="fill: var(--color1, #fff)" d="M5.171 0.035c-0.014 0.001-0.027 0.004-0.041 0.007-1.502 0.18-2.862 0.867-3.809 2.064-1.159 1.466-1.477 3.339-1.256 5.163 0.191 1.58 0.914 3.073 2.19 4.055 1.274 0.981 2.757 1.259 4.331 1.136 1.531-0.21 2.912-0.903 3.862-2.145 1.103-1.441 1.407-3.344 1.166-5.111-0.219-1.605-1.017-3.1-2.323-4.078-1.183-0.886-2.655-1.246-4.12-1.091zM5.662 2.082c0.822-0.010 1.566 0.144 2.213 0.679 0.791 0.655 1.149 1.688 1.24 2.683 0.117 1.281-0.023 2.795-0.884 3.819-0.593 0.705-1.353 0.987-2.249 1.066-0.017 0.002-0.033 0.004-0.050 0.005-0.76 0.039-1.551-0.186-2.139-0.675-0.807-0.672-1.149-1.694-1.235-2.712-0.107-1.275-0.008-2.83 0.864-3.849 0.59-0.691 1.357-0.952 2.239-1.016z"></path>
    <path fill="#fff" style="fill: var(--color1, #fff)" d="M23.449 3.25c-0.005 0.001-0.010 0.001-0.016 0.002-1.027 0.099-1.903 0.506-2.571 1.307-0.835 1.001-1.12 2.406-0.996 3.68 0.105 1.073 0.545 2.133 1.4 2.822 0.862 0.695 1.966 0.859 3.042 0.729 0.848-0.103 1.407-0.481 1.993-1.078 0.001 0.058 0.002 0.117 0.003 0.177 0.016 0.809 0.034 1.788-0.566 2.39-0.404 0.404-0.982 0.49-1.529 0.479-0.591-0.012-1.186-0.149-1.607-0.597-0.119-0.127-0.197-0.285-0.274-0.44-0.014-0.027-0.027-0.055-0.041-0.082-0.214-0.001-0.437-0.008-0.663-0.015-0.547-0.018-1.113-0.037-1.623 0.039-0.044 0.117-0.011 0.244 0.020 0.365 0.006 0.024 0.012 0.048 0.018 0.071 0.305 0.913 0.955 1.617 1.812 2.051 1.216 0.617 2.947 0.671 4.23 0.241 0.944-0.316 1.758-0.956 2.203-1.856 0.171-0.353 0.281-0.733 0.325-1.123 0.088-0.714 0.081-1.465 0.073-2.202-0.003-0.268-0.005-0.534-0.003-0.797l0.014-5.965c-0.234 0-0.469 0.001-0.704 0.002-0.549 0.002-1.099 0.005-1.648-0.002l-0.001 0.781c-0.862-0.712-1.728-1.070-2.865-0.983-0.010 0.001-0.020 0.002-0.030 0.003zM24.072 5.155c0.457-0.039 0.936 0.042 1.33 0.284 0.45 0.277 0.73 0.726 0.853 1.234 0.177 0.729 0.164 1.729-0.245 2.378-0.325 0.516-0.794 0.71-1.365 0.83-0.505 0.056-1.026-0.009-1.454-0.303-0.505-0.346-0.778-0.914-0.879-1.504-0.123-0.714-0.039-1.55 0.398-2.147 0.339-0.464 0.809-0.689 1.363-0.772z"></path>
    <path fill="#fff" style="fill: var(--color1, #fff)" d="M39.384 20.386c-0.749-0.619-1.686-0.85-2.643-0.827-1.12 0.087-1.796 0.422-2.535 1.26l-0.003-1.065-2.384 0.001 0.001 12.089 2.425-0.002-0.003-1.783 0.003-2.256c0.878 0.731 1.818 1.104 2.974 1.003 1.018-0.088 1.907-0.551 2.564-1.334 0.919-1.095 1.19-2.617 1.056-4.008-0.111-1.151-0.541-2.323-1.454-3.077zM36.092 21.552c0.482-0.051 1 0.061 1.396 0.345 0.544 0.39 0.802 1.030 0.891 1.673 0.115 0.837 0.032 1.818-0.51 2.502-0.371 0.468-0.82 0.664-1.395 0.742-0.502 0.049-1.051-0.066-1.462-0.365-0.469-0.34-0.716-0.858-0.806-1.419-0.136-0.848-0.112-2.001 0.425-2.713 0.372-0.492 0.869-0.695 1.461-0.767z"></path>
    <path fill="#fff" style="fill: var(--color1, #fff)" d="M30.451 23.817c-0.198-2.57-2.44-4.494-5.010-4.3-2.576 0.194-4.506 2.442-4.307 5.018s2.45 4.502 5.025 4.299c2.57-0.202 4.49-2.447 4.292-5.017zM25.587 21.462c0.446-0.052 0.942 0.060 1.326 0.291 0.524 0.315 0.845 0.849 0.983 1.434 0.201 0.848 0.164 1.954-0.317 2.707-0.349 0.545-0.826 0.804-1.442 0.933-0.561 0.023-1.059-0.022-1.536-0.353-0.533-0.37-0.82-0.974-0.926-1.597-0.143-0.84-0.077-1.867 0.441-2.576 0.37-0.505 0.867-0.745 1.47-0.838z"></path>
    <path fill="#fff" style="fill: var(--color1, #fff)" d="M4.13 16.522c0.181-0.025 0.376-0.022 0.558-0.027 1.327-0.043 2.751 0.186 3.748 1.137 0.729 0.695 0.944 1.528 0.964 2.506l-2.403 0.009c-0.028-0.481-0.1-0.865-0.475-1.208-0.501-0.458-1.253-0.567-1.909-0.534-0.515 0.026-1.053 0.167-1.401 0.574-0.253 0.296-0.337 0.68-0.294 1.061 0.041 0.368 0.227 0.66 0.532 0.868 0.476 0.324 1.086 0.446 1.638 0.57 1.216 0.273 2.735 0.489 3.711 1.32 0.598 0.51 0.877 1.186 0.934 1.959 0.069 0.945-0.183 1.831-0.815 2.547-0.878 0.996-2.187 1.4-3.474 1.484-1.421 0.098-2.991-0.184-4.103-1.132-0.815-0.695-1.161-1.585-1.243-2.633l2.448-0.004c0.111 0.52 0.3 0.953 0.729 1.288 0.59 0.461 1.418 0.553 2.142 0.472 0.565-0.063 1.159-0.284 1.512-0.751 0.22-0.291 0.298-0.651 0.248-1.010-0.051-0.37-0.26-0.671-0.57-0.875-0.349-0.23-0.781-0.343-1.18-0.449-1.317-0.35-2.896-0.465-3.993-1.333-0.593-0.469-0.94-1.109-1.027-1.861-0.107-0.925 0.072-1.793 0.66-2.53 0.736-0.923 1.928-1.318 3.061-1.449z"></path>
    <path fill="#fff" style="fill: var(--color1, #fff)" d="M37.318 3.877c-0.862-0.562-2-0.661-3.001-0.623-1.084 0.072-2.349 0.321-3.096 1.189-0.4 0.464-0.55 1.023-0.575 1.622l2.239 0.009c0.244-0.489 0.541-0.832 1.082-1.003 0.49-0.155 1.13-0.155 1.586 0.095 0.264 0.145 0.474 0.393 0.559 0.684 0.047 0.159 0.061 0.33 0.074 0.497 0.002 0.027 0.004 0.053 0.007 0.080-0.153 0.171-0.289 0.289-0.502 0.378-0.505 0.212-1.109 0.251-1.684 0.289-0.2 0.013-0.397 0.026-0.584 0.046-1.684 0.178-3.253 0.8-3.128 2.792 0.025 0.401 0.13 0.748 0.301 1.109 0.439 0.701 1.030 1.137 1.841 1.318 0.982 0.219 2.17 0.116 3.032-0.433 0.298-0.19 0.547-0.425 0.787-0.683 0.049 0.346 0.118 0.678 0.203 1.017l2.254-0.004c-0.249-1.19-0.23-2.424-0.211-3.646 0.005-0.33 0.010-0.658 0.010-0.985-0-0.113 0.001-0.228 0.002-0.344 0.005-0.725 0.011-1.508-0.22-2.179-0.177-0.514-0.522-0.928-0.974-1.223zM36.117 8.099l0.068 0.037c0.097 0.507-0.029 1.177-0.29 1.612-0.286 0.478-0.749 0.838-1.293 0.968-0.498 0.119-0.939 0.054-1.371-0.219-0.179-0.162-0.323-0.331-0.399-0.565-0.087-0.27-0.072-0.596 0.064-0.848 0.303-0.559 1.387-0.705 2.286-0.826 0.363-0.049 0.696-0.094 0.935-0.16z"></path>
    <path fill="#fff" style="fill: var(--color1, #fff)" d="M11.234 16.423l2.412 0 0.002 4.473c0.109-0.142 0.219-0.285 0.343-0.414 0.612-0.637 1.449-0.921 2.319-0.937 0.902-0.016 1.846 0.217 2.503 0.867 0.416 0.411 0.688 0.953 0.815 1.521 0.18 0.809 0.089 1.73 0.089 2.558l0.001 4.073-2.41 0.001c-0.020-1.091-0.002-2.185-0.001-3.277-0.002-0.881 0.218-2.5-0.399-3.196-0.282-0.318-0.68-0.45-1.094-0.472-0.562-0.030-1.189 0.042-1.613 0.447-0.262 0.251-0.419 0.592-0.492 0.944-0.148 0.71-0.066 1.53-0.063 2.253l0.002 3.3-2.412 0.001c-0.026-1.374-0.002-2.753-0.002-4.127l0.001-8.014z"></path>
    <path fill="#fff" style="fill: var(--color1, #fff)" d="M45.529 3.251c0.134-0.010 0.268-0.016 0.403-0.016 0.866-0.005 1.665 0.249 2.288 0.87 0.402 0.406 0.683 0.917 0.811 1.475 0.195 0.836 0.091 1.808 0.091 2.667l0.005 4.010h-2.393l0.003-3.639c0-0.658 0.050-1.371-0.038-2.023-0.038-0.278-0.103-0.552-0.269-0.783-0.237-0.33-0.637-0.528-1.036-0.572-0.653-0.073-1.223 0.029-1.752 0.428-0.263 0.296-0.382 0.548-0.458 0.937-0.125 0.636-0.054 1.374-0.053 2.021l0.006 3.631-2.466 0.001 0.004-8.808 2.375 0.001c0.001 0.385 0.005 0.77 0.011 1.155 0.059-0.077 0.118-0.153 0.178-0.228 0.594-0.739 1.372-1.026 2.29-1.127z"></path>
    <path fill="#fff" style="fill: var(--color1, #fff)" d="M59.556 3.253c0.993-0.061 1.986 0.105 2.847 0.625 1.002 0.606 1.533 1.491 1.81 2.606-0.797-0.010-1.594-0.010-2.391-0.002-0.186-0.437-0.448-0.815-0.847-1.083-0.414-0.278-0.931-0.395-1.422-0.286-0.565 0.125-1.035 0.466-1.343 0.955-0.488 0.776-0.536 1.919-0.316 2.789 0.155 0.613 0.498 1.193 1.061 1.511 0.461 0.261 1.061 0.32 1.567 0.165 0.661-0.203 1.028-0.738 1.323-1.323l2.321-0.002c-0.166 0.655-0.39 1.249-0.821 1.779-0.721 0.887-1.782 1.359-2.904 1.475-1.239 0.128-2.485-0.158-3.459-0.958-0.957-0.785-1.491-1.931-1.597-3.154-0.111-1.28 0.156-2.576 0.999-3.576 0.816-0.967 1.936-1.411 3.172-1.522z"></path>
    <path fill="#fff" style="fill: var(--color1, #fff)" d="M18.269 3.296c0.223-0.014 0.446 0.013 0.668 0.032l-0.001 2.251-0.358-0.003c-0.793-0.002-1.693 0.050-2.28 0.661-0.269 0.28-0.421 0.627-0.503 1.002-0.145 0.661-0.072 1.42-0.070 2.096l0.005 2.921c-0.71 0.002-1.689 0.087-2.375-0.019-0.070-0.099-0.050-0.198-0.054-0.317l0-8.468 2.381-0.001c0.011 0.409 0.026 0.817 0.044 1.225 0.093-0.152 0.193-0.295 0.308-0.431 0.556-0.66 1.412-0.877 2.234-0.949z"></path>
    <path fill="#fff" style="fill: var(--color1, #fff)" d="M51.351 3.45l2.454 0.002-0.002 5.833c0 0.984 0.055 1.992-0.011 2.972l-2.449 0.001c0.039-1.143 0.017-2.292 0.017-3.436l-0.010-5.372z"></path>
    <path fill="#fff" style="fill: var(--color1, #fff)" d="M51.29 0.026l2.72-0.002c-0.006 0.679-0.005 1.358 0.002 2.037l-2.722 0.001v-2.036z"></path>
  </symbol>
  <symbol id="icon-burger" viewBox="0 0 32 32">
    <path fill="#fff" style="fill: var(--color1, #fff)" d="M5.333 8h21.333v2.667h-21.333v-2.667zM5.333 14.667h21.333v2.667h-21.333v-2.667zM5.333 21.333h21.333v2.667h-21.333v-2.667z"></path>
  </symbol>
  <symbol id="icon-star-fill" viewBox="0 0 34 32">
    <path stroke-linejoin="miter" stroke-linecap="butt" stroke-miterlimit="4" stroke-width="1.6842" d="M16.053 1.359c0.29-0.688 1.289-0.688 1.579 0l3.416 8.115c0.368 0.873 1.197 1.465 2.14 1.539l8.868 0.702c0.771 0.061 1.046 0.986 0.49 1.457l-6.758 5.719c-0.724 0.612-1.044 1.579-0.821 2.502l2.066 8.549c0.167 0.694-0.609 1.303-1.28 0.898h-0.002l-7.59-4.581c-0.81-0.489-1.828-0.489-2.638 0l-7.592 4.581c-0.671 0.405-1.447-0.204-1.28-0.898l2.066-8.549c0.223-0.923-0.097-1.889-0.821-2.502l-6.758-5.719c-0.556-0.472-0.281-1.396 0.49-1.457l8.868-0.702c0.943-0.075 1.772-0.666 2.14-1.539l3.416-8.115z"></path>
  </symbol>
  <symbol id="icon-star-stroke" viewBox="0 0 34 32">
    <path d="M15.277 1.031c0.579-1.375 2.551-1.375 3.13 0l3.417 8.116c0.244 0.58 0.796 0.976 1.43 1.026l8.869 0.702c1.503 0.119 2.112 1.972 0.967 2.941l-6.757 5.718c-0.483 0.408-0.694 1.049-0.546 1.66l2.064 8.55c0.35 1.449-1.245 2.594-2.532 1.817l-7.593-4.582c-0.542-0.327-1.224-0.327-1.767 0l-7.593 4.582c-1.287 0.776-2.882-0.369-2.532-1.817l2.064-8.55c0.147-0.611-0.063-1.252-0.546-1.66l-6.757-5.718c-1.145-0.969-0.536-2.822 0.967-2.941l8.869-0.702c0.633-0.050 1.185-0.446 1.429-1.026l3.417-8.116z"></path>
  </symbol>
  <symbol id="icon-mail" viewBox="0 0 20 16">
    <path d="M18 0H2C0.897 0 0 0.897 0 2V14C0 15.103 0.897 16 2 16H18C19.103 16 20 15.103 20 14V2C20 0.897 19.103 0 18 0ZM18 2V2.511L10 8.734L2 2.512V2H18ZM2 14V5.044L9.386 10.789C9.56111 10.9265 9.77733 11.0013 10 11.0013C10.2227 11.0013 10.4389 10.9265 10.614 10.789L18 5.044L18.002 14H2Z" fill="#010400"/>
  </symbol>
  <symbol id="icon-phone" viewBox="0 0 19 19">
    <path d="M14.7122 10.2932C14.6194 10.2003 14.5092 10.1265 14.3879 10.0762C14.2666 10.0259 14.1365 10 14.0052 10C13.8739 10 13.7438 10.0259 13.6225 10.0762C13.5012 10.1265 13.391 10.2003 13.2982 10.2932L11.7042 11.8872C10.9652 11.6672 9.58622 11.1672 8.71222 10.2932C7.83822 9.4192 7.33822 8.0402 7.11822 7.3012L8.71222 5.7072C8.80516 5.61441 8.8789 5.50421 8.92921 5.38289C8.97952 5.26158 9.00542 5.13153 9.00542 5.0002C9.00542 4.86887 8.97952 4.73882 8.92921 4.61751C8.8789 4.49619 8.80516 4.38599 8.71222 4.2932L4.71222 0.293201C4.61943 0.200255 4.50922 0.126518 4.38791 0.0762068C4.26659 0.0258961 4.13655 0 4.00522 0C3.87388 0 3.74384 0.0258961 3.62252 0.0762068C3.50121 0.126518 3.391 0.200255 3.29822 0.293201L0.586217 3.0052C0.206217 3.3852 -0.00778346 3.9072 0.000216545 4.4402C0.0232165 5.8642 0.400217 10.8102 4.29822 14.7082C8.19622 18.6062 13.1422 18.9822 14.5672 19.0062H14.5952C15.1232 19.0062 15.6222 18.7982 16.0002 18.4202L18.7122 15.7082C18.8052 15.6154 18.8789 15.5052 18.9292 15.3839C18.9795 15.2626 19.0054 15.1325 19.0054 15.0012C19.0054 14.8699 18.9795 14.7398 18.9292 14.6185C18.8789 14.4972 18.8052 14.387 18.7122 14.2942L14.7122 10.2932ZM14.5852 17.0052C13.3372 16.9842 9.06722 16.6492 5.71222 13.2932C2.34622 9.9272 2.02022 5.6422 2.00022 4.4192L4.00522 2.4142L6.59122 5.0002L5.29822 6.2932C5.18068 6.41065 5.09426 6.55554 5.04677 6.71477C4.99928 6.874 4.99222 7.04256 5.02622 7.2052C5.05022 7.3202 5.63722 10.0472 7.29722 11.7072C8.95722 13.3672 11.6842 13.9542 11.7992 13.9782C11.9618 14.0132 12.1305 14.0067 12.2899 13.9593C12.4492 13.9119 12.5941 13.8252 12.7112 13.7072L14.0052 12.4142L16.5912 15.0002L14.5852 17.0052Z" fill="#010400"/>
  </symbol>
  <symbol id="icon-health" viewBox="0 0 31 32">
		<path fill="#fff" style="fill: var(--color1, #fff)" d="M27.677 5.218l-9.038 5.219v-10.437h-6.4v10.437l-9.038-5.219-3.2 5.544 9.037 5.218-9.037 5.218 3.2 5.544 9.038-5.218v10.437h6.4v-10.437l9.038 5.218 3.2-5.544-9.037-5.218 9.037-5.218-3.2-5.544z"></path>
	</symbol>
	<symbol id="icon-basketball" viewBox="0 0 31 32">
		<path fill="#fff" style="fill: var(--color1, #fff)" d="M4.565 26.663c2.958 2.958 6.876 4.586 11.038 4.586s8.081-1.628 11.038-4.586c6.086-6.086 6.086-15.989 0-22.077-2.956-2.957-6.878-4.586-11.038-4.586s-8.081 1.63-11.038 4.588c-6.086 6.085-6.086 15.989 0 22.075zM16.085 3.147c2.607 0.094 5.117 1.011 7.171 2.619l-7.653 7.652-2.279-2.279c1.812-2.309 2.797-5.164 2.761-7.992zM11.091 8.907l-3.141-3.141c1.474-1.156 3.192-1.962 5.023-2.357-0.023 1.929-0.695 3.867-1.883 5.498zM8.868 11.099c-1.59 1.086-3.474 1.662-5.399 1.65 0.406-1.737 1.182-3.365 2.276-4.773l3.123 3.124zM3.132 15.853c0.12 0.003 0.24 0.022 0.361 0.022 2.747 0.009 5.421-0.883 7.613-2.538l2.29 2.288-7.65 7.65c-1.651-2.126-2.568-4.731-2.613-7.422zM22.322 20.138c1.627-1.183 3.559-1.854 5.476-1.883-0.39 1.829-1.189 3.545-2.337 5.022l-3.139-3.139zM23.254 25.485c-1.408 1.1-3.037 1.883-4.775 2.295-0.018-1.933 0.558-3.825 1.65-5.42l3.125 3.125zM15.381 28.116c-2.698-0.043-5.308-0.967-7.432-2.632l7.653-7.652 2.284 2.284c-1.722 2.254-2.59 5.098-2.505 8zM28.062 15.145c-2.821-0.028-5.671 0.952-7.973 2.76l-2.279-2.279 7.65-7.65c1.597 2.058 2.507 4.566 2.602 7.17z"></path>
	</symbol>
	<symbol id="icon-restaurant" viewBox="0 0 28 32">
		<path fill="#fff" style="fill: var(--color1, #fff)" d="M14.222 12.444h-3.556v-12.444h-3.556v12.444h-3.556v-12.444h-3.556v14.222c0 2.94 2.393 5.333 5.333 5.333h1.778v12.444h3.556v-12.444h1.778c2.94 0 5.333-2.393 5.333-5.333v-14.222h-3.556v12.444zM26.667 0h-1.778c-2.060 0-3.556 2.244-3.556 5.333v14.222h3.556v12.444h3.556v-30.222c0-0.472-0.187-0.924-0.521-1.257s-0.786-0.521-1.257-0.521z"></path>
	</symbol>
	<symbol id="icon-cheese" viewBox="0 0 33 32">
		<path fill="#fff" style="fill: var(--color1, #fff)" d="M21.597 0.018c-0.375-0.056-0.758 0.019-1.083 0.213l-19.692 11.487c-0.078 0.045-0.15 0.101-0.213 0.164l-0.164 0.131c-0.112 0.129-0.205 0.273-0.279 0.427-0.117 0.216-0.173 0.46-0.164 0.706v16.41c0 0.435 0.173 0.853 0.481 1.16s0.725 0.481 1.16 0.481h29.538c0.435 0 0.853-0.173 1.16-0.481s0.481-0.725 0.481-1.16v-16.41c0.006-3.168-1.122-6.234-3.181-8.642s-4.912-3.999-8.043-4.486zM21.597 3.382c1.973 0.404 3.777 1.397 5.175 2.847s2.322 3.29 2.653 5.276h-21.711l13.883-8.123zM29.539 27.916h-26.256v-13.128h26.256v13.128z"></path>
		<path fill="#fff" style="fill: var(--color1, #fff)" d="M7.386 26.274c1.359 0 2.462-1.102 2.462-2.462s-1.102-2.462-2.462-2.462-2.462 1.102-2.462 2.462c0 1.359 1.102 2.462 2.462 2.462z"></path>
		<path fill="#fff" style="fill: var(--color1, #fff)" d="M15.591 21.351c1.36 0 2.462-1.102 2.462-2.462s-1.102-2.462-2.462-2.462c-1.359 0-2.462 1.102-2.462 2.462s1.102 2.462 2.462 2.462z"></path>
		<path fill="#fff" style="fill: var(--color1, #fff)" d="M24.616 26.274c1.813 0 3.282-1.469 3.282-3.282s-1.469-3.282-3.282-3.282c-1.813 0-3.282 1.469-3.282 3.282s1.469 3.282 3.282 3.282z"></path>
	</symbol>
</svg>
