<svg aria-hidden="true" style="position: absolute; width: 0; height: 0; overflow: hidden;" version="1.1" xmlns="http://www.w3.org/2000/svg" xmlns:xlink="http://www.w3.org/1999/xlink">
  <defs>
    <symbol id="icon-basketball" viewBox="0 0 32 32">
      <path fill="#fff" style="fill: var(--color1, #fff)" d="M6.572 25.428c2.527 2.527 5.873 3.917 9.428 3.917s6.903-1.391 9.428-3.917c5.199-5.199 5.199-13.657 0-18.857-2.525-2.525-5.875-3.917-9.428-3.917s-6.903 1.392-9.428 3.919c-5.199 5.197-5.199 13.657 0 18.856zM16.412 5.342c2.227 0.080 4.371 0.863 6.125 2.237l-6.537 6.536-1.947-1.947c1.548-1.972 2.389-4.411 2.359-6.827zM12.147 10.262l-2.683-2.683c1.259-0.987 2.726-1.676 4.291-2.013-0.020 1.648-0.593 3.303-1.608 4.696zM10.248 12.134c-1.358 0.928-2.967 1.42-4.612 1.409 0.346-1.483 1.010-2.874 1.944-4.077l2.668 2.668zM5.348 16.195c0.103 0.003 0.205 0.019 0.308 0.019 2.346 0.007 4.63-0.754 6.503-2.168l1.956 1.955-6.535 6.535c-1.41-1.816-2.193-4.041-2.232-6.34zM21.74 19.855c1.389-1.011 3.040-1.584 4.677-1.608-0.333 1.562-1.016 3.028-1.996 4.289l-2.681-2.681zM22.536 24.422c-1.202 0.94-2.594 1.609-4.079 1.96-0.015-1.651 0.477-3.267 1.409-4.629l2.669 2.669zM15.811 26.67c-2.305-0.037-4.534-0.826-6.348-2.248l6.537-6.536 1.951 1.951c-1.471 1.925-2.212 4.355-2.14 6.833zM26.643 15.59c-2.409-0.024-4.844 0.813-6.811 2.357l-1.947-1.947 6.535-6.535c1.364 1.758 2.141 3.9 2.223 6.124z"></path>
    </symbol>
    <symbol id="icon-cheese" viewBox="0 0 32 32">
      <path fill="#fff" style="fill: var(--color1, #fff)" d="M20.213 2.667c-0.305-0.046-0.615 0.016-0.88 0.173l-16 9.333c-0.063 0.037-0.122 0.082-0.173 0.133l-0.133 0.107c-0.091 0.105-0.167 0.222-0.227 0.347-0.095 0.176-0.141 0.374-0.133 0.573v13.333c0 0.354 0.14 0.693 0.391 0.943s0.589 0.391 0.943 0.391h24c0.354 0 0.693-0.141 0.943-0.391s0.391-0.589 0.391-0.943v-13.333c0.005-2.574-0.912-5.065-2.585-7.022s-3.991-3.25-6.535-3.645zM20.213 5.4c1.603 0.328 3.069 1.135 4.204 2.313s1.887 2.673 2.156 4.287h-17.64l11.28-6.6zM26.666 25.334h-21.333v-10.667h21.333v10.667z"></path>
      <path fill="#fff" style="fill: var(--color1, #fff)" d="M8.666 24c1.105 0 2-0.895 2-2s-0.895-2-2-2-2 0.895-2 2c0 1.105 0.895 2 2 2z"></path>
      <path fill="#fff" style="fill: var(--color1, #fff)" d="M15.333 20c1.105 0 2-0.895 2-2s-0.895-2-2-2c-1.105 0-2 0.895-2 2s0.895 2 2 2z"></path>
      <path fill="#fff" style="fill: var(--color1, #fff)" d="M22.666 24c1.473 0 2.667-1.194 2.667-2.667s-1.194-2.667-2.667-2.667c-1.473 0-2.667 1.194-2.667 2.667s1.194 2.667 2.667 2.667z"></path>
    </symbol>
    <symbol id="icon-chevron-down" viewBox="0 0 32 32">
      <path fill="#fff" style="fill: var(--color1, #fff)" d="M21.724 11.057l-5.724 5.724-5.724-5.724-1.885 1.885 7.609 7.609 7.609-7.609-1.885-1.885z"></path>
    </symbol>
    <symbol id="icon-chevron-left" viewBox="0 0 32 32">
      <path fill="#fff" style="fill: var(--color1, #fff)" d="M17.724 8.391l-7.609 7.609 7.609 7.609 1.885-1.885-5.724-5.724 5.724-5.724-1.885-1.885z"></path>
    </symbol>
    <symbol id="icon-chevron-right" viewBox="0 0 32 32">
      <path fill="#fff" style="fill: var(--color1, #fff)" d="M12.943 22.599l7.609-7.609-7.609-7.609-1.885 1.885 5.724 5.724-5.724 5.724 1.885 1.885z"></path>
    </symbol>
    <symbol id="icon-chevron-up" viewBox="0 0 32 32">
      <path fill="#fff" style="fill: var(--color1, #fff)" d="M8.391 19.057l1.885 1.885 5.724-5.724 5.724 5.724 1.885-1.885-7.609-7.609-7.609 7.609z"></path>
    </symbol>
    <symbol id="icon-Facebook" viewBox="0 0 32 32">
      <path fill="#fff" style="fill: var(--color1, #fff)" d="M29.333 16.405c0-7.409-5.969-13.415-13.333-13.415s-13.333 6.006-13.333 13.415c0 6.696 4.876 12.245 11.25 13.252v-9.374h-3.385v-3.878h3.385v-2.955c0-3.362 1.991-5.219 5.036-5.219 1.459 0 2.985 0.262 2.985 0.262v3.301h-1.681c-1.656 0-2.173 1.034-2.173 2.095v2.516h3.698l-0.591 3.878h-3.107v9.374c6.374-1.006 11.25-6.556 11.25-13.252z"></path>
    </symbol>
    <symbol id="icon-Google" viewBox="0 0 32 32">
      <path fill="#fff" style="fill: var(--color1, #fff)" d="M28 15.72c0 5.533-2.947 12.28-11.827 12.28-6.674 0.044-12.122-5.326-12.173-12 0.051-6.674 5.499-12.044 12.173-12 2.761 0.010 5.438 0.95 7.6 2.667 0.149 0.122 0.241 0.301 0.253 0.493 0.001 0.195-0.076 0.382-0.213 0.52-0.868 0.794-1.696 1.63-2.48 2.507-0.228 0.251-0.61 0.286-0.88 0.080-1.232-0.912-2.735-1.381-4.267-1.333-3.94 0-7.133 3.194-7.133 7.133s3.194 7.133 7.133 7.133c4 0 5.693-1.707 6.573-4.733h-6.093c-0.368 0-0.667-0.299-0.667-0.667v-3.533c0-0.368 0.299-0.667 0.667-0.667h10.667c0.307-0.002 0.566 0.228 0.6 0.533 0.049 0.527 0.072 1.057 0.067 1.587z"></path>
    </symbol>
    <symbol id="icon-health" viewBox="0 0 32 32">
      <path fill="#fff" style="fill: var(--color1, #fff)" d="M26.198 7.048l-7.532 4.349v-8.697h-5.333v8.697l-7.532-4.349-2.667 4.62 7.531 4.348-7.531 4.348 2.667 4.62 7.532-4.348v8.697h5.333v-8.697l7.532 4.348 2.667-4.62-7.531-4.348 7.531-4.348-2.667-4.62z"></path>
    </symbol>
    <symbol id="icon-Instagram" viewBox="0 0 32 32">
      <path fill="#fff" style="fill: var(--color1, #fff)" d="M15.998 6.161c3.206 0 3.585 0.014 4.846 0.071 1.172 0.052 1.804 0.248 2.226 0.412 0.558 0.216 0.961 0.478 1.378 0.895 0.422 0.422 0.679 0.82 0.9 1.378 0.164 0.422 0.361 1.059 0.412 2.226 0.056 1.266 0.071 1.645 0.071 4.847s-0.014 3.585-0.071 4.847c-0.052 1.172-0.248 1.804-0.412 2.227-0.216 0.558-0.478 0.961-0.895 1.377-0.422 0.422-0.82 0.679-1.378 0.9-0.422 0.164-1.060 0.361-2.226 0.412-1.266 0.056-1.645 0.071-4.847 0.071s-3.585-0.014-4.847-0.071c-1.172-0.052-1.804-0.248-2.226-0.412-0.558-0.216-0.961-0.478-1.378-0.895-0.422-0.422-0.679-0.82-0.9-1.378-0.164-0.422-0.361-1.060-0.412-2.226-0.056-1.266-0.071-1.645-0.071-4.847s0.014-3.585 0.071-4.847c0.052-1.172 0.248-1.804 0.412-2.226 0.216-0.558 0.478-0.961 0.895-1.378 0.422-0.422 0.82-0.679 1.378-0.9 0.422-0.164 1.059-0.361 2.226-0.412 1.261-0.056 1.641-0.071 4.847-0.071h0.001zM15.998 4.001c-3.258 0-3.665 0.014-4.945 0.071-1.275 0.056-2.151 0.262-2.91 0.558-0.792 0.309-1.462 0.717-2.127 1.387-0.67 0.666-1.078 1.336-1.387 2.123-0.295 0.764-0.502 1.636-0.558 2.91-0.056 1.285-0.071 1.692-0.071 4.949s0.014 3.665 0.071 4.945c0.056 1.275 0.262 2.151 0.558 2.91 0.31 0.792 0.717 1.462 1.387 2.127 0.665 0.665 1.336 1.078 2.123 1.383 0.764 0.295 1.636 0.502 2.91 0.558 1.279 0.056 1.687 0.071 4.945 0.071s3.666-0.014 4.945-0.071c1.275-0.056 2.151-0.262 2.91-0.558 0.787-0.305 1.458-0.717 2.123-1.383s1.078-1.336 1.383-2.123c0.295-0.764 0.502-1.635 0.558-2.91 0.056-1.279 0.071-1.687 0.071-4.945s-0.014-3.665-0.071-4.945c-0.056-1.275-0.262-2.151-0.558-2.91-0.295-0.797-0.703-1.467-1.373-2.133-0.665-0.665-1.336-1.078-2.123-1.383-0.764-0.295-1.635-0.502-2.91-0.558-1.284-0.061-1.692-0.075-4.949-0.075l-0.001 0.001z"></path>
      <path fill="#fff" style="fill: var(--color1, #fff)" d="M15.998 9.836c-3.402 0-6.163 2.76-6.163 6.163s2.76 6.163 6.163 6.163c3.403 0 6.163-2.76 6.163-6.163s-2.76-6.163-6.163-6.163zM15.998 19.997c-2.208 0-3.998-1.79-3.998-3.998s1.79-3.998 3.998-3.998c2.208 0 3.998 1.79 3.998 3.998s-1.79 3.998-3.998 3.998z"></path>
      <path fill="#fff" style="fill: var(--color1, #fff)" d="M23.843 9.592c0 0.795-0.644 1.439-1.439 1.439s-1.439-0.644-1.439-1.439 0.644-1.439 1.439-1.439c0.795 0 1.439 0.644 1.439 1.439z"></path>
    </symbol>
    <symbol id="icon-LinkedIn" viewBox="0 0 32 32">
      <path fill="#fff" style="fill: var(--color1, #fff)" d="M25.75 4h-19.5c-1.237 0-2.25 1.013-2.25 2.25v19.5c0 1.237 1.013 2.25 2.25 2.25h19.5c1.237 0 2.25-1.013 2.25-2.25v-19.5c0-1.237-1.013-2.25-2.25-2.25zM13 23.5h-3v-10.5h3v10.5zM11.5 11.5c-0.829 0-1.5-0.671-1.5-1.5s0.671-1.5 1.5-1.5c0.829 0 1.5 0.671 1.5 1.5s-0.671 1.5-1.5 1.5zM23.5 23.5h-3v-6c0-0.829-0.671-1.5-1.5-1.5s-1.5 0.671-1.5 1.5v6h-3v-10.5h3v1.861c0.619-0.848 1.565-1.861 2.625-1.861 1.866 0 3.375 1.679 3.375 3.75v6.75z"></path>
    </symbol>
    <symbol id="icon-menu" viewBox="0 0 32 32">
      <path fill="#fff" style="fill: var(--color1, #fff)" d="M5.333 8h21.333v2.667h-21.333v-2.667zM5.333 14.667h21.333v2.667h-21.333v-2.667zM5.333 21.333h21.333v2.667h-21.333v-2.667z"></path>
    </symbol>
    <symbol id="icon-restaurant" viewBox="0 0 32 32">
      <path fill="#fff" style="fill: var(--color1, #fff)" d="M16 13.333h-2.667v-9.333h-2.667v9.333h-2.667v-9.333h-2.667v10.667c0 2.205 1.795 4 4 4h1.333v9.333h2.667v-9.333h1.333c2.205 0 4-1.795 4-4v-10.667h-2.667v9.333zM25.333 4h-1.333c-1.545 0-2.667 1.683-2.667 4v10.667h2.667v9.333h2.667v-22.667c0-0.354-0.141-0.693-0.391-0.943s-0.589-0.391-0.943-0.391z"></path>
    </symbol>
    <symbol id="icon-star" viewBox="0 0 32 32">
      <path d="M8.688 19.097l-1.987 8.603c-0.062 0.261-0.043 0.533 0.053 0.783s0.265 0.465 0.485 0.617c0.22 0.152 0.481 0.235 0.749 0.236s0.53-0.078 0.752-0.227l7.26-4.84 7.26 4.84c0.227 0.151 0.495 0.228 0.768 0.222s0.537-0.095 0.757-0.256c0.22-0.161 0.386-0.385 0.475-0.642s0.097-0.536 0.023-0.799l-2.439-8.533 6.048-5.443c0.194-0.174 0.332-0.402 0.398-0.654s0.056-0.518-0.027-0.765-0.238-0.464-0.444-0.624c-0.206-0.16-0.454-0.256-0.714-0.277l-7.601-0.605-3.289-7.281c-0.105-0.234-0.275-0.434-0.491-0.573s-0.467-0.214-0.724-0.214c-0.257 0-0.508 0.074-0.724 0.214s-0.386 0.339-0.491 0.573l-3.289 7.281-7.601 0.604c-0.255 0.020-0.5 0.114-0.703 0.269s-0.358 0.366-0.445 0.607c-0.087 0.241-0.103 0.502-0.046 0.752s0.185 0.478 0.369 0.656l5.619 5.476zM12.492 13.329c0.238-0.019 0.467-0.101 0.662-0.239s0.35-0.325 0.448-0.543l2.399-5.308 2.399 5.308c0.098 0.218 0.252 0.405 0.448 0.543s0.424 0.22 0.662 0.239l5.296 0.42-4.361 3.925c-0.379 0.341-0.529 0.867-0.391 1.357l1.671 5.847-4.981-3.321c-0.219-0.147-0.476-0.225-0.739-0.225s-0.521 0.078-0.739 0.225l-5.205 3.471 1.4-6.061c0.051-0.223 0.044-0.455-0.020-0.675s-0.184-0.419-0.348-0.579l-4.051-3.949 5.453-0.435z"></path>
    </symbol>
    <symbol id="icon-twiter" viewBox="0 0 32 32">
      <path fill="#fff" style="fill: var(--color1, #fff)" d="M22.901 5.657h3.68l-8.040 9.037 9.459 12.297h-7.406l-5.801-7.458-6.637 7.458h-3.682l8.6-9.666-9.074-11.668h7.594l5.243 6.817 6.064-6.817zM21.61 24.824h2.039l-13.163-17.115h-2.188l13.312 17.115z"></path>
    </symbol>
    <symbol id="icon-x" viewBox="0 0 32 32">
      <path fill="#fff" style="fill: var(--color1, #fff)" d="M21.589 8.459l-5.657 5.656-5.656-5.656-1.885 1.885 5.656 5.656-5.656 5.656 1.885 1.885 5.656-5.656 5.657 5.656 1.885-1.885-5.656-5.656 5.656-5.656-1.885-1.885z"></path>
    </symbol>
    <symbol id="icon-Youtube" viewBox="0 0 32 32">
      <path fill="#fff" style="fill: var(--color1, #fff)" d="M28.791 9.604c-0.152-0.563-0.449-1.077-0.861-1.49s-0.925-0.711-1.489-0.864c-2.088-0.573-10.441-0.583-10.441-0.583s-8.352-0.009-10.441 0.539c-0.563 0.16-1.075 0.462-1.487 0.878s-0.711 0.929-0.867 1.493c-0.551 2.088-0.556 6.419-0.556 6.419s-0.005 4.352 0.541 6.419c0.307 1.143 1.207 2.045 2.351 2.353 2.109 0.573 10.44 0.583 10.44 0.583s8.353 0.009 10.441-0.537c0.563-0.153 1.077-0.45 1.49-0.862s0.712-0.925 0.866-1.488c0.552-2.087 0.556-6.416 0.556-6.416s0.027-4.353-0.543-6.441zM13.328 20.007l0.007-8 6.943 4.007-6.949 3.993z"></path>
    </symbol>
  </defs>
</svg>