<svg aria-hidden="true" style="position: absolute;  width: 0; height: 0; overflow: hidden;" version="1.1" xmlns="http://www.w3.org/2000/svg" xmlns:xlink="http://www.w3.org/1999/xlink">
      <path fill="#d1ddcc" style="fill: var(--color1, #d1ddcc)" d="M0 0h32v32h-32v-32z"></path>
      <path fill="#010400" style="fill: var(--color2, #010400)" d="M27.806 4.972c-1.22-0.041-2.436-0.081-3.657-0.041-5.669 0.239-12.089 1.243-16.121 5.659-1.923 2.107-2.967 4.718-2.82 7.584 0.096 1.621 0.525 3.205 1.26 4.653-0.007 0.012-0.014 0.024-0.020 0.037-0.004 0.006-0.007 0.013-0.011 0.019-0.216 0.369-0.673 0.882-1.134 1.4-0.583 0.655-1.173 1.317-1.289 1.702-0.029 0.098-0.008 0.217 0.020 0.313 0.095 0.322 0.427 0.574 0.687 0.772l0.019 0.015c0.57-0.561 1.088-1.17 1.606-1.779l0.041-0.049 1.048-1.28c2.784 1.578 5.517 2.076 8.639 1.21 3.823-1.061 6.779-3.781 8.684-7.198 2.121-3.804 3.098-8.689 3.24-13.011l-0.194-0.006zM22.268 8.785c0.015 0.004 0.029 0.007 0.043 0.011 0.136 0.034 0.259 0.065 0.374 0.157 0.123 0.098 0.219 0.254 0.211 0.413-0.010 0.191-0.080 0.287-0.211 0.42-0.409 0.414-0.904 0.778-1.389 1.135-0.215 0.158-0.427 0.314-0.63 0.473-1.284 0.994-2.55 2.011-3.797 3.051 0.787-0.191 3.427-0.643 4.114-0.408 0.212 0.073 0.283 0.178 0.37 0.376-0.019 0.293-0.108 0.472-0.388 0.595-0.127 0.056-1.074 0.148-2.136 0.252-1.209 0.118-2.569 0.25-3.035 0.36-0.296 0.070-0.529 0.168-0.777 0.342-0.375 0.263-0.715 0.592-1.050 0.917-0.124 0.121-0.248 0.241-0.373 0.357-1.1 1.021-2.18 2.051-3.235 3.12 0.749 0.166 1.852 0.113 2.918 0.061 1.202-0.058 2.359-0.114 2.918 0.148 0.091 0.117 0.118 0.242 0.105 0.391-0.011 0.12-0.079 0.196-0.164 0.273-0.461 0.42-5.010 0.286-5.716 0.205-0.029-0.005-0.058-0.009-0.088-0.015-0.157-0.027-0.332-0.057-0.48-0.026-1.142 0.235-2.707 2.005-3.387 2.891l0.042-0.097c0.317-0.74 0.636-1.484 1.077-2.16 0.747-1.146 2.867-3.269 3.907-4.273 0.165-0.159 0.358-0.322 0.556-0.488 0.438-0.369 0.905-0.762 1.164-1.198 0.261-0.44 0.416-1.359 0.579-2.324 0.205-1.213 0.422-2.497 0.875-2.992 0.132-0.144 0.172-0.152 0.353-0.171 0.179 0.078 0.293 0.155 0.395 0.328 0.074 0.127 0.084 0.253 0.064 0.394-0.047 0.342-0.167 0.701-0.284 1.053-0.063 0.19-0.126 0.378-0.176 0.56-0.17 0.618-0.299 1.246-0.428 1.873-0.014 0.071-0.029 0.142-0.044 0.213 0.6-0.578 1.274-1.091 1.943-1.601 0.217-0.165 0.433-0.33 0.645-0.496 0.322-0.252 0.645-0.503 0.969-0.754 1.409-1.095 2.826-2.195 4.166-3.364z "></path>
</svg>