<svg width="84" height="36" viewBox="0 0 84 36" fill="none" xmlns="http://www.w3.org/2000/svg">
<g clip-path="url(#clip0_8202_63360)">
<path d="M74.2764 19.2228C73.4245 19.1943 72.5753 19.166 71.7226 19.1944C67.7637 19.361 63.2804 20.0627 60.4651 23.1459C59.1219 24.6175 58.393 26.4404 58.4959 28.4418C58.5633 29.5737 58.8629 30.6798 59.3761 31.6912C59.3714 31.6998 59.3667 31.7083 59.3619 31.7167C59.3593 31.7213 59.3568 31.7258 59.3542 31.7302C59.2032 31.9879 58.884 32.3463 58.5621 32.7077C58.1547 33.1651 57.7431 33.6273 57.6621 33.8966C57.6416 33.9649 57.6568 34.0483 57.6763 34.1151C57.7429 34.3403 57.9743 34.5162 58.1559 34.6542L58.1695 34.6645C58.5678 34.2729 58.9295 33.8475 59.2912 33.4221L59.32 33.3882L60.0519 32.4943C61.9957 33.5965 63.9044 33.9444 66.0849 33.3394C68.7547 32.5987 70.819 30.6993 72.149 28.313C73.6303 25.6563 74.3124 22.245 74.4115 19.2273L74.2764 19.2228ZM70.4092 21.8855C70.4193 21.8881 70.4294 21.8906 70.4394 21.8931C70.5342 21.917 70.6201 21.9387 70.7004 22.0026C70.7863 22.0708 70.8536 22.1797 70.8478 22.2912C70.841 22.4245 70.7922 22.4914 70.7004 22.5846C70.4149 22.8737 70.0694 23.1276 69.7304 23.3769C69.5806 23.4871 69.432 23.5963 69.2904 23.7073C68.3936 24.4016 67.51 25.1118 66.6391 25.8378C67.189 25.7046 69.0323 25.3889 69.5119 25.5529C69.6602 25.6041 69.7095 25.6768 69.77 25.8154C69.7568 26.0203 69.6944 26.1447 69.4992 26.2306C69.4105 26.2698 68.7493 26.3341 68.0079 26.4062C67.1633 26.4883 66.2142 26.5806 65.8887 26.6575C65.6823 26.7063 65.5194 26.7751 65.3462 26.8966C65.084 27.0804 64.847 27.31 64.6131 27.5366C64.5261 27.6208 64.4396 27.7046 64.3523 27.7855C63.5838 28.4989 62.83 29.2175 62.0933 29.964C62.6167 30.0797 63.3863 30.0426 64.1313 30.0068C64.9705 29.9664 65.7788 29.9275 66.1688 30.1099C66.2327 30.1919 66.2512 30.2787 66.2424 30.3831C66.2351 30.4671 66.1873 30.5198 66.1278 30.5739C65.8058 30.8671 62.629 30.7735 62.1362 30.7174C62.1163 30.7142 62.0957 30.7107 62.0746 30.7071C61.9649 30.6883 61.843 30.6674 61.7391 30.6891C60.9413 30.8535 59.8484 32.0889 59.3737 32.708L59.4027 32.6403C59.6242 32.1234 59.8468 31.6042 60.1548 31.1316C60.6764 30.3309 62.1572 28.8487 62.8832 28.148C62.9986 28.0368 63.1331 27.9235 63.2717 27.8069C63.5779 27.5492 63.9038 27.2748 64.0844 26.9702C64.2665 26.6632 64.3749 26.0213 64.4886 25.3475C64.6315 24.5008 64.783 23.6038 65.0998 23.2578C65.192 23.1572 65.2198 23.1513 65.3462 23.1383C65.4711 23.1931 65.5511 23.2463 65.6218 23.3674C65.6735 23.4558 65.6804 23.544 65.6667 23.6424C65.6341 23.881 65.5503 24.1319 65.4683 24.3775C65.4239 24.5104 65.3801 24.6416 65.3452 24.7686C65.2264 25.2002 65.1363 25.6386 65.0464 26.0767C65.0362 26.1261 65.026 26.1759 65.0158 26.2252C65.4348 25.8217 65.9056 25.463 66.3724 25.1073C66.5236 24.9921 66.6745 24.8771 66.8231 24.761C67.0479 24.5854 67.2736 24.41 67.4997 24.2345C68.4838 23.4702 69.4732 22.7018 70.4092 21.8855Z" fill="white"/>
<path d="M12.3175 0.302046C12.3021 0.303708 12.2869 0.307073 12.2716 0.30961C10.5817 0.512336 9.05221 1.28464 7.98682 2.6319C6.68239 4.28131 6.32554 6.38854 6.57354 8.44062C6.78842 10.2186 7.60146 11.8976 9.03703 13.0029C10.4707 14.1068 12.1384 14.4189 13.9089 14.2811C15.6309 14.0446 17.1843 13.265 18.2541 11.8676C19.4953 10.2465 19.8366 8.10533 19.5659 6.11746C19.32 4.3121 18.4213 2.63034 16.9528 1.52972C15.622 0.53239 13.9661 0.127622 12.3175 0.302046ZM12.8696 2.60463C13.7945 2.59321 14.6319 2.76675 15.3596 3.36879C16.2498 4.10523 16.6527 5.26767 16.7551 6.38683C16.887 7.8282 16.7297 9.53124 15.761 10.6836C15.094 11.4771 14.2387 11.7941 13.2308 11.8831C13.2121 11.885 13.1935 11.8878 13.1747 11.8888C12.3201 11.9326 11.4294 11.6797 10.7679 11.1292C9.8595 10.3732 9.47528 9.22347 9.37897 8.07796C9.2583 6.64337 9.37033 4.89476 10.3506 3.7475C11.0146 2.97046 11.8768 2.67689 12.8696 2.60463Z" fill="white"/>
<path d="M32.8799 3.91924C32.874 3.9199 32.8681 3.92056 32.8622 3.92117C31.7073 4.03261 30.7217 4.49065 29.9696 5.39172C29.0297 6.51781 28.7094 8.09814 28.8492 9.53166C28.967 10.7389 29.4627 11.9309 30.4244 12.7066C31.3942 13.4889 32.6365 13.6732 33.847 13.5264C34.8005 13.4107 35.4299 12.9855 36.0895 12.3134C36.0905 12.3786 36.0917 12.445 36.093 12.5125C36.1106 13.4232 36.1317 14.5245 35.4562 15.2011C35.0021 15.6559 34.3512 15.7529 33.7364 15.74C33.0715 15.7262 32.4019 15.5728 31.929 15.0684C31.7951 14.9255 31.7074 14.7483 31.6209 14.5735C31.6057 14.5428 31.5905 14.5121 31.5751 14.4817C31.3341 14.4811 31.0837 14.4728 30.8297 14.4644C30.2143 14.444 29.5781 14.4229 29.0039 14.5081C28.954 14.6403 28.991 14.7831 29.0263 14.9189C29.0333 14.9459 29.0402 14.9727 29.0464 14.999C29.3897 16.0261 30.1208 16.8176 31.0843 17.3062C32.4529 18.0003 34.4002 18.061 35.8435 17.5778C36.9056 17.2222 37.8216 16.5028 38.3221 15.4895C38.5145 15.0921 38.6382 14.665 38.688 14.2262C38.7873 13.4225 38.7788 12.5783 38.7706 11.7487C38.7676 11.4471 38.7646 11.1475 38.7668 10.8525L38.783 4.14195C38.5192 4.14233 38.2553 4.14349 37.9914 4.14465C37.3734 4.14737 36.7553 4.15009 36.1377 4.14278L36.1361 5.0214C35.166 4.22021 34.192 3.81788 32.9135 3.91585C32.9022 3.91672 32.8911 3.91798 32.8799 3.91924ZM33.581 6.062C34.0952 6.01829 34.6339 6.10899 35.0769 6.38188C35.5835 6.69385 35.898 7.19854 36.0363 7.76963C36.2349 8.59019 36.2211 9.71491 35.7611 10.4444C35.395 11.025 34.8676 11.2433 34.225 11.3777C33.6567 11.4406 33.0711 11.3679 32.5889 11.0372C32.0212 10.6479 31.7135 10.009 31.5996 9.34577C31.4616 8.54248 31.556 7.60242 32.0471 6.93024C32.4283 6.40856 32.9571 6.15515 33.581 6.062Z" fill="white"/>
<path d="M50.8069 23.1976C49.9638 22.5014 48.9105 22.2416 47.8331 22.2674C46.5734 22.365 45.8127 22.7418 44.9808 23.6848L44.9769 22.4867L42.2954 22.4875L42.2964 36.0871L45.0248 36.0847L45.0209 34.0794L45.0248 31.5413C46.0128 32.3639 47.0696 32.783 48.3703 32.6693C49.5155 32.5698 50.5157 32.0497 51.2553 31.169C52.2897 29.937 52.5937 28.225 52.4429 26.6598C52.318 25.3649 51.834 24.0463 50.8069 23.1976ZM47.1032 24.5088C47.6458 24.4512 48.2284 24.5779 48.6738 24.8975C49.2857 25.3361 49.5764 26.0562 49.6765 26.7793C49.8063 27.7205 49.7126 28.8251 49.1022 29.5945C48.6846 30.121 48.1801 30.341 47.5331 30.4293C46.9681 30.4845 46.3509 30.3547 45.8879 30.019C45.3604 29.6365 45.0818 29.0539 44.9808 28.4231C44.8277 27.4692 44.8545 26.1724 45.4595 25.3712C45.8776 24.8181 46.4368 24.5896 47.1032 24.5088Z" fill="white"/>
<path d="M40.7577 27.0571C40.5348 24.1658 38.0128 22.0011 35.1213 22.2192C32.223 22.4378 30.0522 24.9669 30.2756 27.865C30.4989 30.7627 33.0316 32.9295 35.9291 32.7012C38.8199 32.4738 40.9805 29.9484 40.7577 27.0571ZM35.2856 24.4082C35.7879 24.3494 36.3457 24.4759 36.777 24.735C37.3669 25.0893 37.7277 25.69 37.8834 26.3486C38.1091 27.303 38.0682 28.5466 37.5264 29.3941C37.1341 30.0074 36.5975 30.2987 35.9045 30.4436C35.2738 30.469 34.7133 30.4192 34.1767 30.0465C33.5775 29.6308 33.2546 28.9511 33.1347 28.2495C32.9734 27.304 33.048 26.1486 33.6313 25.3513C34.0472 24.7832 34.6067 24.5131 35.2856 24.4082Z" fill="white"/>
<path d="M11.1468 18.8499C11.3498 18.822 11.5693 18.8256 11.7746 18.8189C13.2679 18.7708 14.8694 19.0287 15.9915 20.0982C16.8121 20.8803 17.0537 21.8174 17.0764 22.9176L14.373 22.9278C14.3415 22.3866 14.2607 21.9544 13.8383 21.5685C13.2742 21.053 12.4287 20.9308 11.691 20.9678C11.1113 20.9969 10.507 21.1561 10.1154 21.6135C9.83024 21.9466 9.73686 22.3781 9.78472 22.8074C9.83078 23.2208 10.0401 23.5503 10.3828 23.7833C10.9183 24.1476 11.6041 24.2846 12.2257 24.424C13.594 24.7309 15.3028 24.9737 16.4002 25.9094C17.0732 26.4832 17.3871 27.2433 17.4509 28.1137C17.5288 29.1769 17.2447 30.1742 16.5342 30.9797C15.5461 32.0999 14.0735 32.5547 12.626 32.6493C11.0275 32.7601 9.26056 32.4424 8.01055 31.3754C7.09382 30.5933 6.70491 29.5926 6.61182 28.4138L9.36566 28.4094C9.4911 28.9939 9.70349 29.4813 10.1862 29.8585C10.8499 30.3771 11.782 30.4811 12.5962 30.3898C13.232 30.3186 13.8995 30.0707 14.2968 29.5448C14.5443 29.2174 14.6316 28.8124 14.5764 28.4084C14.5193 27.9918 14.2839 27.6536 13.9351 27.4243C13.5419 27.1657 13.057 27.0389 12.6074 26.9193C11.1261 26.5256 9.34946 26.3963 8.11501 25.4195C7.4475 24.8914 7.05757 24.1717 6.95979 23.3262C6.83947 22.2856 7.04103 21.3096 7.70263 20.4802C8.53105 19.4416 9.87196 18.9979 11.1468 18.8499Z" fill="white"/>
<path d="M48.4826 4.62415C47.5131 3.99192 46.2328 3.88014 45.1063 3.92323C43.887 4.00437 42.4633 4.28423 41.6231 5.26058C41.1737 5.78303 41.0048 6.41106 40.9763 7.08501L43.4952 7.09516C43.7694 6.54509 44.1036 6.15915 44.712 5.96707C45.2634 5.79298 45.983 5.79245 46.4958 6.07441C46.7925 6.23766 47.0296 6.51674 47.1247 6.84394C47.1773 7.02283 47.1929 7.21526 47.2081 7.40249C47.2105 7.43247 47.2129 7.46233 47.2155 7.49197C47.0432 7.6844 46.8905 7.81658 46.6505 7.91728C46.0829 8.15535 45.4031 8.20003 44.7561 8.24257C44.5309 8.25737 44.3098 8.27191 44.0987 8.29424C42.2042 8.49462 40.4394 9.19472 40.5796 11.4348C40.6079 11.886 40.7255 12.2763 40.9188 12.6826C41.4126 13.4707 42.0778 13.9619 42.9897 14.1648C44.0948 14.4108 45.4312 14.2949 46.4012 13.6782C46.7364 13.465 47.0164 13.2004 47.2862 12.9104C47.3414 13.2992 47.4185 13.6735 47.5146 14.0542L50.0507 14.0491C49.771 12.7107 49.792 11.3217 49.8129 9.94712C49.8185 9.57639 49.8241 9.2067 49.8238 8.83933C49.8237 8.71254 49.8247 8.58325 49.8257 8.45226C49.8319 7.63686 49.8386 6.7553 49.5784 6.00039C49.3789 5.42164 48.991 4.95603 48.4826 4.62415ZM47.1316 9.37471L47.2077 9.41589C47.317 9.9861 47.175 10.74 46.8818 11.2295C46.5602 11.767 46.0391 12.1726 45.4273 12.3184C44.8667 12.4519 44.3705 12.3796 43.8845 12.0722C43.683 11.8903 43.5211 11.7 43.4357 11.437C43.3376 11.1328 43.3542 10.7669 43.5074 10.4834C43.8479 9.85446 45.0681 9.6905 46.0794 9.55461C46.4882 9.49967 46.8629 9.44933 47.1316 9.37471Z" fill="white"/>
<path d="M19.1381 18.7393L21.8514 18.7393L21.854 23.7713C21.9767 23.6113 22.1001 23.4507 22.2399 23.305C22.9282 22.5881 23.8698 22.2686 24.8487 22.251C25.864 22.2327 26.925 22.4949 27.6642 23.2266C28.132 23.6895 28.4386 24.2984 28.5813 24.9375C28.7842 25.8473 28.6813 26.8836 28.6814 27.8151L28.6828 32.3975L25.9717 32.3984C25.9495 31.1714 25.9699 29.9399 25.9701 28.7123C25.9683 27.7209 26.215 25.9 25.5207 25.1164C25.2037 24.7588 24.7556 24.6101 24.2894 24.5854C23.6576 24.5518 22.9517 24.6331 22.475 25.0886C22.1798 25.3706 22.0034 25.7546 21.9211 26.1503C21.7551 26.949 21.8465 27.8712 21.8504 28.6855L21.8527 32.3975L19.1387 32.3984C19.1094 30.8528 19.1362 29.3012 19.1365 27.755L19.1381 18.7393Z" fill="white"/>
<path d="M57.7209 3.92097C57.8717 3.90941 58.0229 3.90321 58.1742 3.90243C59.149 3.89667 60.0472 4.1821 60.7484 4.88137C61.2011 5.33858 61.5168 5.91319 61.6603 6.54039C61.8798 7.48108 61.7632 8.57443 61.7632 9.54058L61.7691 14.052H59.0773L59.0807 9.95759C59.0812 9.21739 59.1373 8.41498 59.0378 7.68219C58.9953 7.36974 58.9221 7.06163 58.7348 6.80172C58.4679 6.43101 58.018 6.20823 57.5692 6.15807C56.8349 6.076 56.1933 6.19057 55.598 6.639C55.3023 6.97151 55.1682 7.25562 55.0828 7.69293C54.9423 8.40864 55.0218 9.23905 55.0228 9.96657L55.0296 14.0517L52.2554 14.0523L52.2598 4.1437L54.9315 4.14507C54.9325 4.57833 54.9369 5.01164 54.9442 5.44485C55.0101 5.35844 55.0764 5.27291 55.1443 5.18836C55.8122 4.35696 56.688 4.03363 57.7209 3.92097Z" fill="white"/>
<path d="M73.4998 3.92157C74.6171 3.85336 75.7344 4.03999 76.7024 4.62479C77.83 5.30635 78.4267 6.3027 78.7384 7.55701C77.8417 7.54633 76.9449 7.54564 76.0481 7.55501C75.8393 7.06325 75.5441 6.63799 75.0948 6.33612C74.6288 6.02299 74.0472 5.89213 73.4954 6.01459C72.8597 6.1557 72.3313 6.53904 71.9848 7.0893C71.436 7.96207 71.3818 9.24834 71.6296 10.2265C71.8038 10.9157 72.1903 11.5681 72.8231 11.9269C73.3417 12.2211 74.0165 12.2871 74.5864 12.1124C75.3299 11.8841 75.7427 11.2819 76.075 10.6235L76.4833 10.6233L78.6862 10.621C78.4999 11.3582 78.2471 12.0264 77.7621 12.6228C76.9508 13.6205 75.7578 14.1512 74.4946 14.2821C73.1007 14.4266 71.6994 14.1042 70.6036 13.2047C69.5273 12.3212 68.9266 11.0321 68.8071 9.65643C68.6822 8.21627 68.9828 6.75802 69.9312 5.63329C70.849 4.54516 72.1093 4.04545 73.4998 3.92157Z" fill="white"/>
<path d="M27.0536 3.97035C27.3046 3.95425 27.5549 3.9846 27.8049 4.00592L27.804 6.53776L27.4014 6.53469C26.5089 6.53279 25.4966 6.5906 24.8359 7.27855C24.5335 7.59345 24.3624 7.98387 24.2698 8.40611C24.1067 9.14968 24.1884 10.0033 24.1916 10.7644L24.1976 14.0509C23.3989 14.0531 22.2979 14.149 21.5262 14.029C21.4471 13.9171 21.4698 13.8066 21.4653 13.6722L21.4656 4.14541L24.1442 4.14395C24.1569 4.60351 24.1735 5.06292 24.194 5.52219C24.2991 5.35152 24.4108 5.1908 24.5401 5.0374C25.1658 4.29525 26.1281 4.05022 27.0536 3.97035Z" fill="white"/>
<path d="M64.27 4.14453L67.0311 4.14668L67.0286 10.7087C67.0286 11.8158 67.0906 12.9492 67.0164 14.0522L64.2617 14.0531C64.3061 12.7673 64.2812 11.4745 64.2812 10.1877L64.27 4.14453Z" fill="white"/>
<path d="M64.2012 0.292332L67.2613 0.290039C67.2545 1.05395 67.2555 1.81792 67.2638 2.58179L64.2012 2.58291V0.292332Z" fill="white"/>
</g>
<defs>
<clipPath id="clip0_8202_63360">
<rect width="84" height="36" fill="white"/>
</clipPath>
</defs>
</svg>
